<?xml version="1.0" encoding="UTF-8"?>
<svg xmlns="http://www.w3.org/2000/svg" xmlns:xlink="http://www.w3.org/1999/xlink" viewBox="0 0 96 96" width="96px" height="96px">
<g id="surface42242812">
<path style=" stroke:none;fill-rule:nonzero;fill:rgb(100%,84.313726%,0%);fill-opacity:1;" d="M 81.371094 10.664062 C 80.761719 9.988281 79.894531 9.601562 78.984375 9.601562 L 17.015625 9.601562 C 16.105469 9.601562 15.238281 9.988281 14.628906 10.664062 C 14.023438 11.34375 13.734375 12.25 13.832031 13.152344 L 20.878906 76.585938 C 21.019531 77.875 21.933594 78.953125 23.179688 79.308594 L 47.117188 86.148438 C 47.40625 86.230469 47.703125 86.273438 47.996094 86.273438 C 48.292969 86.273438 48.589844 86.230469 48.875 86.148438 L 72.8125 79.308594 C 74.0625 78.953125 74.96875 77.875 75.113281 76.585938 L 82.164062 13.152344 C 82.265625 12.25 81.976562 11.34375 81.371094 10.664062 Z M 65.652344 41.835938 L 64.222656 65.148438 L 48.101562 70.417969 L 31.980469 65.148438 L 31.371094 54 L 39.53125 54 L 39.734375 59.070312 L 48.101562 61.90625 L 56.46875 59.070312 L 57.082031 49.949219 L 39.125 49.949219 L 38.71875 41.839844 L 57.492188 41.839844 L 58.101562 33.730469 L 29.9375 33.730469 L 29.328125 25.621094 L 66.671875 25.621094 Z M 65.652344 41.835938 "/>
</g>
</svg>
