<?xml version="1.0" encoding="UTF-8"?>
<svg xmlns="http://www.w3.org/2000/svg" xmlns:xlink="http://www.w3.org/1999/xlink" viewBox="0 0 60 60" width="60px" height="60px">
<g id="surface43560257">
<path style=" stroke:none;fill-rule:nonzero;fill:rgb(100%,84.313726%,0%);fill-opacity:1;" d="M 30 6 C 16.746094 6 6 16.746094 6 30 C 6 41.246094 13.742188 50.65625 24.183594 53.261719 C 24.070312 52.9375 24 52.558594 24 52.09375 L 24 47.992188 C 23.027344 47.992188 21.394531 47.992188 20.984375 47.992188 C 19.34375 47.992188 17.882812 47.285156 17.175781 45.972656 C 16.386719 44.515625 16.253906 42.285156 14.304688 40.921875 C 13.726562 40.46875 14.164062 39.949219 14.832031 40.019531 C 16.0625 40.367188 17.082031 41.210938 18.042969 42.464844 C 18.996094 43.71875 19.449219 44.003906 21.234375 44.003906 C 22.101562 44.003906 23.394531 43.953125 24.617188 43.761719 C 25.273438 42.09375 26.40625 40.558594 27.792969 39.835938 C 19.800781 39.015625 15.984375 35.039062 15.984375 29.640625 C 15.984375 27.316406 16.976562 25.066406 18.65625 23.175781 C 18.105469 21.292969 17.410156 17.460938 18.871094 16 C 22.464844 16 24.640625 18.332031 25.160156 18.960938 C 26.953125 18.347656 28.921875 18 30.988281 18 C 33.0625 18 35.039062 18.347656 36.835938 18.964844 C 37.351562 18.339844 39.527344 16 43.128906 16 C 44.59375 17.460938 43.890625 21.3125 43.335938 23.1875 C 45.007812 25.078125 45.988281 27.320312 45.988281 29.640625 C 45.988281 35.035156 42.183594 39.007812 34.203125 39.835938 C 36.398438 40.980469 38 44.199219 38 46.625 L 38 52.09375 C 38 52.300781 37.953125 52.453125 37.929688 52.628906 C 47.28125 49.351562 54 40.472656 54 30 C 54 16.746094 43.253906 6 30 6 Z M 30 6 "/>
</g>
</svg>
