<?xml version="1.0" encoding="UTF-8"?>
<svg xmlns="http://www.w3.org/2000/svg" xmlns:xlink="http://www.w3.org/1999/xlink" viewBox="0 0 50 50" width="50px" height="50px">
<g id="surface11957921">
<path style=" stroke:none;fill-rule:nonzero;fill:rgb(100%,84.313726%,0%);fill-opacity:1;" d="M 41 4 L 9 4 C 6.238281 4 4 6.238281 4 9 L 4 41 C 4 43.761719 6.238281 46 9 46 L 41 46 C 43.761719 46 46 43.761719 46 41 L 46 9 C 46 6.238281 43.761719 4 41 4 Z M 17 20 L 17 39 L 11 39 L 11 20 Z M 11 14.46875 C 11 13.070312 12.199219 12 14 12 C 15.800781 12 16.929688 13.070312 17 14.46875 C 17 15.871094 15.878906 17 14 17 C 12.199219 17 11 15.871094 11 14.46875 Z M 39 39 L 33 39 C 33 39 33 29.738281 33 29 C 33 27 32 25 29.5 24.960938 L 29.421875 24.960938 C 27 24.960938 26 27.019531 26 29 C 26 29.910156 26 39 26 39 L 20 39 L 20 20 L 26 20 L 26 22.558594 C 26 22.558594 27.929688 20 31.808594 20 C 35.78125 20 39 22.730469 39 28.261719 Z M 39 39 "/>
</g>
</svg>
